# xmcd
#
# Track frame offsets:
#	183
#	22470
#	41998
#	87133
#	111833
#	137958
#	165783
#	194283
#	223008
#	240633
#	261000
#
# Disc length: 3765 seconds
#
# Revision: 1
# Processed by: cddbd v1.5.1PL2 Copyright (c) Steve Scherf et al.
# Submitted via: audiograbber 1.83.01
#
DISCID=9c0eb30b
DTITLE=The Moody Marsden Band - Never Turn Our Back On The Blues
DYEAR=1992
DGENRE=Blues
TTITLE0=Baby What You Want
TTITLE1=The Stealer
TTITLE2=Have You Ever Loved Women - How Blue Can You Get
TTITLE3=Foolin' With My Heart
TTITLE4=It Hurts Me, Too
TTITLE5=Ain't No Love (In The Heart Of The City)
TTITLE6=Never Turn My Back On The Blues
TTITLE7=Fool For Your Lovin'
TTITLE8=Going Down
TTITLE9=Here I Go Again
TTITLE10=Wee Wee Baby
EXTD=
EXTT0=
EXTT1=
EXTT2=
EXTT3=
EXTT4=
EXTT5=
EXTT6=
EXTT7=
EXTT8=
EXTT9=
EXTT10=
PLAYORDER=
